<?xml version="1.0" encoding="UTF-8"?>
<svg xmlns="http://www.w3.org/2000/svg" xmlns:xlink="http://www.w3.org/1999/xlink" width="40px" height="40px" viewBox="0 0 40 40" version="1.1">
<g id="surface1">
<path style=" stroke:none;fill-rule:nonzero;fill:rgb(20%,20%,20%);fill-opacity:1;" d="M 34.171875 37.359375 L 5.730469 37.359375 C 5.394531 37.359375 5.082031 37.160156 4.90625 36.871094 C 4.730469 36.582031 4.695312 36.210938 4.851562 35.914062 L 13.8125 18.609375 L 13.8125 8.351562 C 13.8125 7.820312 14.289062 7.5 14.820312 7.5 L 25.441406 7.5 C 25.972656 7.5 26.363281 7.820312 26.363281 8.351562 L 26.363281 18.613281 L 35.015625 35.914062 C 35.164062 36.214844 35.15625 36.59375 34.980469 36.878906 C 34.804688 37.164062 34.503906 37.359375 34.171875 37.359375 Z M 7.320312 35.441406 L 32.609375 35.441406 L 24.621094 19.300781 C 24.554688 19.167969 24.566406 18.988281 24.566406 18.839844 L 24.566406 9.378906 L 15.769531 9.378906 L 15.769531 18.84375 C 15.769531 19 15.742188 19.179688 15.671875 19.320312 Z M 29.300781 9.378906 L 11.441406 9.378906 C 10.910156 9.378906 10.476562 8.972656 10.476562 8.4375 C 10.476562 7.90625 10.910156 7.5 11.441406 7.5 L 29.300781 7.5 C 29.835938 7.5 30.265625 7.90625 30.265625 8.4375 C 30.265625 8.972656 29.835938 9.378906 29.300781 9.378906 Z M 9.972656 26.765625 L 29.839844 26.765625 L 29.839844 28.726562 L 9.972656 28.726562 Z M 18.925781 2.558594 L 20.976562 2.558594 L 20.976562 4.609375 L 18.925781 4.609375 Z M 14.1875 2.558594 L 16.238281 2.558594 L 16.238281 4.609375 L 14.1875 4.609375 Z M 23.664062 2.558594 L 25.714844 2.558594 L 25.714844 4.609375 L 23.664062 4.609375 Z M 23.664062 2.558594 "/>
</g>
</svg>
